# xmcd
#
# Track frame offsets:
#	150
#	12673
#	25515
#	40093
#	53350
#	66373
#	79373
#	91978
#	104600
#	116725
#
# Disc length: 1725
#
# Revision: 2
# Processed by: cddbd v1.5.1PL0 Copyright (c) Steve Scherf et al.
# Submitted via: KiC 2.1 - (C) 1996-1998 Alwin Hoogerdijk
# Normalized: r1:DSETVAR1
#
DISCID=7c06bb0a
DTITLE=Various Artist - Star Spangled Country
DYEAR=1900
DGENRE=
TTITLE0=Gene Autry - At Mail Call Today
TTITLE1=Al Dexter - Rosalita
TTITLE2=Ernest Tubb - Soldier's Last Letter
TTITLE3=Bob Wills - Smoke On The Water
TTITLE4=Spade Cooley With Vocal By Tex Williams - Shame On You
TTITLE5=Floyd Tillman - G. I. Blues
TTITLE6=Bob Wills - Star And Stripes On Iwo Jima
TTITLE7=Al Dexter - Pistol Packin' Moma
TTITLE8=Ted Daffan - Born To Lose
TTITLE9=Roy Acuff - Night Train To Memphis
EXTD=
EXTT0=
EXTT1=
EXTT2=
EXTT3=
EXTT4=
EXTT5=
EXTT6=
EXTT7=
EXTT8=
EXTT9=
PLAYORDER=
